<?xml version="1.0" encoding="UTF-8" standalone="no"?>
<!-- Created with Inkscape (http://www.inkscape.org/) -->
<svg
   xmlns:dc="http://purl.org/dc/elements/1.1/"
   xmlns:cc="http://creativecommons.org/ns#"
   xmlns:rdf="http://www.w3.org/1999/02/22-rdf-syntax-ns#"
   xmlns:svg="http://www.w3.org/2000/svg"
   xmlns="http://www.w3.org/2000/svg"
   xmlns:xlink="http://www.w3.org/1999/xlink"
   xmlns:sodipodi="http://sodipodi.sourceforge.net/DTD/sodipodi-0.dtd"
   xmlns:inkscape="http://www.inkscape.org/namespaces/inkscape"
   width="1052.3622"
   height="744.09448"
   id="svg2"
   sodipodi:version="0.32"
   inkscape:version="0.46"
   version="1.0"
   sodipodi:docname="game.svg"
   inkscape:output_extension="org.inkscape.output.svg.inkscape">
  <defs
     id="defs4">
    <linearGradient
       id="linearGradient3211">
      <stop
         style="stop-color:#54ab20;stop-opacity:1;"
         offset="0"
         id="stop3213" />
      <stop
         style="stop-color:#ab2020;stop-opacity:1;"
         offset="1"
         id="stop3215" />
    </linearGradient>
    <inkscape:perspective
       sodipodi:type="inkscape:persp3d"
       inkscape:vp_x="0 : 526.18109 : 1"
       inkscape:vp_y="0 : 1000 : 0"
       inkscape:vp_z="744.09448 : 526.18109 : 1"
       inkscape:persp3d-origin="372.04724 : 350.78739 : 1"
       id="perspective10" />
    <inkscape:perspective
       id="perspective3377"
       inkscape:persp3d-origin="293.125 : 178.33333 : 1"
       inkscape:vp_z="586.25 : 267.5 : 1"
       inkscape:vp_y="0 : 1000 : 0"
       inkscape:vp_x="0 : 267.5 : 1"
       sodipodi:type="inkscape:persp3d" />
    <inkscape:perspective
       id="perspective3649"
       inkscape:persp3d-origin="372.04724 : 350.78739 : 1"
       inkscape:vp_z="744.09448 : 526.18109 : 1"
       inkscape:vp_y="0 : 1000 : 0"
       inkscape:vp_x="0 : 526.18109 : 1"
       sodipodi:type="inkscape:persp3d" />
    <linearGradient
       inkscape:collect="always"
       xlink:href="#linearGradient3211"
       id="linearGradient3217"
       x1="289.85715"
       y1="453.66589"
       x2="34.844887"
       y2="453.66589"
       gradientUnits="userSpaceOnUse" />
    <linearGradient
       inkscape:collect="always"
       xlink:href="#linearGradient3211"
       id="linearGradient3223"
       gradientUnits="userSpaceOnUse"
       x1="289.85715"
       y1="453.66589"
       x2="34.844887"
       y2="453.66589"
       gradientTransform="translate(717,20)" />
    <linearGradient
       inkscape:collect="always"
       xlink:href="#linearGradient3211"
       id="linearGradient3231"
       gradientUnits="userSpaceOnUse"
       gradientTransform="translate(0,20)"
       x1="289.85715"
       y1="453.66589"
       x2="34.844887"
       y2="453.66589" />
    <linearGradient
       inkscape:collect="always"
       xlink:href="#linearGradient3211"
       id="linearGradient3239"
       gradientUnits="userSpaceOnUse"
       gradientTransform="translate(717,20)"
       x1="289.85715"
       y1="453.66589"
       x2="34.844887"
       y2="453.66589" />
  </defs>
  <sodipodi:namedview
     id="base"
     pagecolor="#ffffff"
     bordercolor="#666666"
     borderopacity="1.0"
     gridtolerance="10000"
     guidetolerance="10"
     objecttolerance="10"
     inkscape:pageopacity="0.0"
     inkscape:pageshadow="2"
     inkscape:zoom="1"
     inkscape:cx="428.11132"
     inkscape:cy="398.6233"
     inkscape:document-units="px"
     inkscape:current-layer="layer1"
     showgrid="false"
     inkscape:window-width="1688"
     inkscape:window-height="994"
     inkscape:window-x="2035"
     inkscape:window-y="47" />
  <metadata
     id="metadata7">
    <rdf:RDF>
      <cc:Work
         rdf:about="">
        <dc:format>image/svg+xml</dc:format>
        <dc:type
           rdf:resource="http://purl.org/dc/dcmitype/StillImage" />
      </cc:Work>
    </rdf:RDF>
  </metadata>
  <g
     inkscape:label="Layer 1"
     inkscape:groupmode="layer"
     id="layer1">
    <rect
       style="opacity:1;fill:#0c1729;fill-opacity:1;fill-rule:nonzero;stroke:none;stroke-width:2;stroke-linecap:butt;stroke-linejoin:round;stroke-miterlimit:4;stroke-dasharray:2, 2;stroke-dashoffset:0;stroke-opacity:1"
       id="rect2383"
       width="1021.4286"
       height="634.14282"
       x="18.571428"
       y="24.094482"
       inkscape:export-xdpi="90.230003"
       inkscape:export-ydpi="90.230003"
       inkscape:export-filename="/home/tamentis/projects/tictactroll/gfx/back.png" />
    <rect
       y="169.66591"
       x="40.85714"
       height="230"
       width="254.28571"
       id="rect3159"
       style="opacity:1;fill:#0c1729;fill-opacity:1;fill-rule:nonzero;stroke:#8a6b15;stroke-width:4;stroke-linecap:butt;stroke-linejoin:round;stroke-miterlimit:4;stroke-dasharray:none;stroke-dashoffset:0;stroke-opacity:1" />
    <rect
       style="opacity:1;fill:#6c788d;fill-opacity:1;fill-rule:nonzero;stroke:#d2a320;stroke-width:4;stroke-linecap:butt;stroke-linejoin:round;stroke-miterlimit:4;stroke-dasharray:none;stroke-dashoffset:0;stroke-opacity:1"
       id="rect3157"
       width="254.28571"
       height="230"
       x="36.85714"
       y="165.66591" />
    <rect
       style="opacity:1;fill:#0c1729;fill-opacity:1;fill-rule:nonzero;stroke:#8a6b15;stroke-width:4;stroke-linecap:butt;stroke-linejoin:round;stroke-miterlimit:4;stroke-dasharray:none;stroke-dashoffset:0;stroke-opacity:1"
       id="rect3427"
       width="254.28571"
       height="230"
       x="757.85712"
       y="167.66591" />
    <rect
       y="163.66591"
       x="753.85712"
       height="230"
       width="254.28571"
       id="rect3429"
       style="opacity:1;fill:#6c788d;fill-opacity:1;fill-rule:nonzero;stroke:#d2a320;stroke-width:4;stroke-linecap:butt;stroke-linejoin:round;stroke-miterlimit:4;stroke-dasharray:none;stroke-dashoffset:0;stroke-opacity:1" />
    <g
       transform="matrix(0.5481353,0,0,0.5481353,752.34445,154.43053)"
       id="g3431">
      <path
         style="fill:#0d0d0d"
         d="M 170.86,51.27 C 224.03,44.99 277.69,47.2 331.01,49.97 C 338.06,49.76 345.09,48.42 352.14,49.19 C 358.18,49.9 363.59,53.03 368.43,56.54 C 378.18,63.74 386.36,72.88 393.31,82.76 C 401.53,94.62 403.32,109.66 411.61,121.5 C 422.55,136.73 440,145.87 450.4,161.56 C 457.42,171.74 458.61,184.79 457.28,196.77 C 456.13,207.53 450.49,217.27 443.21,225.08 C 433.49,235.4 422.33,244.68 415.07,257.04 C 410.29,265.17 408.45,274.63 403.76,282.79 C 392.6,299.48 376.31,311.95 359.3,322.24 C 334.7,337.02 307.93,347.59 282.24,360.23 C 270.17,366.07 258.58,372.89 246.22,378.12 C 234.81,383.08 222.32,384.37 210.19,386.57 C 199.64,388.18 189.34,391.04 178.93,393.34 C 153.4,398.87 127.11,403.17 100.94,400.39 C 83.06,398.47 64.88,392.02 52.32,378.68 C 47.44,373.18 42.89,367.07 40.34,360.13 C 38.86,339.05 41.73,318.02 44.48,297.17 C 47.08,277.1 48.65,256.5 44.31,236.55 C 40.1,220.75 30.12,207.31 25.1,191.81 C 21.17,180.08 20.29,166.86 24.91,155.2 C 32.39,141.46 47.26,133.46 54.11,119.27 C 58.01,111.72 58.78,103.07 58.51,94.71 C 70.75,82.47 86.07,73.73 102.09,67.43 C 124.1,58.77 147.47,54.18 170.86,51.27 z"
         id="path3433" />
      <path
         style="fill:#fcfcfc"
         d="M 147.64,65.69 C 200.71,57.99 254.48,54.68 308.08,56.61 C 320.72,57.43 333.44,56.63 346.04,58.18 C 356.7,59.61 366.32,65.69 373.23,73.78 C 389.62,92.84 394.69,118.97 411.43,137.79 C 404.24,138.55 397.06,136.51 389.9,137.48 C 387.75,137.67 385.85,138.76 384.13,139.98 C 395.02,138.61 406.41,139.01 416.61,143.45 C 430.56,149.17 441.97,161.2 446.21,175.75 C 449.48,187.09 447.71,199.63 441.86,209.83 C 435,221.85 423.78,230.97 411.32,236.71 C 411.9,236.98 412.49,237.24 413.08,237.51 C 415.34,236.66 417.35,235.32 419.36,234.01 C 419.64,234.59 420.2,235.76 420.48,236.34 C 417.27,238.44 413.76,240.27 411.39,243.39 C 405.79,250.22 404.04,259.1 400.87,267.13 C 397.49,276.45 391.01,284.2 384.13,291.16 C 367.55,307.2 347.13,318.41 326.71,328.76 C 312.11,335.9 297.27,342.54 282.6,349.54 C 269.75,355.53 257.77,363.18 244.88,369.08 C 242.02,370.26 239.17,371.68 236.06,372 C 231.66,372.04 227.31,370.77 222.9,371.28 C 215.18,372.1 208,375.24 200.73,377.74 C 185.67,383.44 169.74,386.26 153.87,388.56 C 136.01,390.93 117.85,392 99.93,389.7 C 85.29,387.72 69.98,383.49 59.22,372.77 C 53.49,366.66 48.73,358.59 49.5,349.92 C 49.31,315.09 58.63,280.74 55.77,245.85 C 54.57,235.19 52.84,224.17 47.19,214.85 C 42.74,207.01 36.38,200.02 34.23,191.07 C 32.16,180.43 31.99,168.87 36.85,158.93 C 42.95,146.03 56.88,138.98 62.65,125.86 C 65.77,119.05 66.03,111.42 65.59,104.08 C 80.71,86.42 101.85,73.54 124.81,69.3 C 140.48,66.26 156.34,69.57 172.06,70.34 C 203.65,72.39 234.44,61.54 266.02,63.06 C 280.55,64.02 294.74,68.21 307.88,74.41 C 322.38,81.22 335.46,90.57 348.98,99.07 C 353.31,101.65 357.56,104.47 362.28,106.32 C 348.08,95.11 333.49,84.15 317.54,75.51 C 300.79,66.52 282.07,60.99 263.02,60.41 C 231.45,59.41 200.55,68.56 168.98,68 C 161.83,67.77 154.61,67.37 147.64,65.69 z"
         id="path3435" />
      <path
         style="fill:#0d0d0d"
         d="M 225.14,75.63 C 250.38,72.12 276.66,73.5 300.79,82.15 C 315.53,87.41 329.31,95.5 340.79,106.17 C 344.51,109.85 348.45,113.43 351.25,117.9 C 331.49,100.15 307.96,85.94 281.83,80.11 C 265.99,76.41 249.55,75.73 233.37,77.2 C 220.75,78.55 208.77,83.55 196.02,84.03 C 172.62,85.58 149.21,83.01 126,80.17 C 123.72,79.95 121.45,79.51 119.16,79.6 C 115.14,81.62 112.08,85.31 107.53,86.31 C 110.55,81.24 115.97,77.92 121.79,77.23 C 133.39,75.87 144.64,79.78 156.06,81.02 C 179.23,83.08 202.29,79.03 225.14,75.63 z"
         id="path3437" />
      <path
         style="fill:#0d0d0d"
         d="M 242.06,88.97 C 265.39,86.53 289.77,88.24 311.49,97.63 C 321.56,102.21 331.96,109.47 334.83,120.79 C 327.56,107.86 313.72,100.42 299.95,96.31 C 278.91,90.13 256.64,89.26 234.88,90.34 C 237.19,89.54 239.62,89.15 242.06,88.97 z"
         id="path3439" />
      <path
         style="fill:#0d0d0d"
         d="M 120.9,97.12 C 136.54,92.02 153.56,91.79 169.58,95.23 C 172.52,95.87 175.79,95.89 178.34,97.67 C 180.05,98.59 178.5,100.44 178.15,101.67 C 163.87,96 148.08,94.05 132.89,96.45 C 123.72,98.1 114.32,101.94 108.53,109.56 C 106.02,112.73 104.82,116.61 103.25,120.27 C 103.55,114.59 105.66,109.25 108.2,104.24 C 111.54,100.61 116.34,98.75 120.9,97.12 z"
         id="path3441" />
      <path
         style="fill:#0d0d0d"
         d="M 240.3,94.12 C 241.87,92.59 243.65,93.93 245.23,94.64 C 240.02,97.58 236.12,102.49 234.11,108.11 C 233.82,111.46 234.33,114.91 233.28,118.18 C 230.95,113.99 231.37,108.98 231.77,104.39 C 235.08,101.35 236.86,97.01 240.3,94.12 z"
         id="path3443" />
      <path
         style="fill:#0d0d0d"
         d="M 166.76,106.97 C 168.02,106.61 169.28,106.28 170.56,105.96 C 171.88,108.69 173.43,111.32 175.54,113.53 C 175.45,120.14 175.63,126.75 175.45,133.36 C 170.15,128.6 175.16,121.06 173.29,115.17 C 171.26,112.31 168.31,110.18 166.76,106.97 z"
         id="path3445" />
      <path
         style="fill:#0d0d0d"
         d="M 265.15,119.16 C 281.54,116.19 299.15,116.52 314.61,123.31 C 324.47,127.57 332.97,135.99 335.2,146.76 C 332.56,148.84 329.53,150.7 326.07,150.78 C 318.15,151.14 310.82,147.3 302.99,146.77 C 281.29,145.02 259.85,151.85 241.01,162.19 C 236.21,157.3 228.09,155.57 225.71,148.55 C 223.88,144.16 227.25,140.17 229.79,136.91 C 238.77,126.72 252.17,121.85 265.15,119.16 z"
         id="path3447" />
      <path
         style="fill:#fcfcfc"
         d="M 245.56,136.61 C 253.71,131.61 263.1,129.29 272.12,126.4 C 270.98,131.24 274.1,135.34 274.78,139.95 C 268.58,139.24 262.41,140.92 257.11,144.1 C 251.4,147.34 245,151.9 238.13,149.18 C 237.46,143.74 241.16,139.22 245.56,136.61 z"
         id="path3449" />
      <path
         style="fill:#0d0d0d"
         d="M 122.13,129.36 C 134.39,126.33 147.38,128.43 159.14,132.53 C 167.07,135.56 175.35,139.49 180.09,146.88 C 185.05,145.44 190.66,143.28 195.54,146.2 C 195.44,148.15 195.51,150.46 193.88,151.84 C 189.99,155.7 183.49,155.18 180,159.65 C 179.99,166.65 180.03,173.65 179.97,180.65 C 173.91,187.39 162.47,188.71 159.6,198.26 C 164.45,206.66 170.44,215.7 180.12,218.9 C 184.02,219.2 186.53,215.61 189.83,214.16 C 191.03,214.87 192.23,215.6 193.42,216.34 C 191.53,221.01 189.21,226.04 184.65,228.64 C 181.66,230.28 178.13,229.21 175.42,227.54 C 165.97,221.62 160.48,211.24 151.13,205.2 C 149.25,207.25 147.14,210.05 144.03,209.76 C 142.46,207.7 141.84,205.12 140.71,202.82 C 131.93,205 124.77,213.72 115.13,212.14 C 136.39,203.64 153.04,187.54 171,173.89 C 171,168.52 171,163.14 171,157.76 C 162.57,152.72 152.55,151.73 142.97,150.79 C 130.52,149.53 117.59,149.5 105.89,144.51 C 107.6,136.67 114.57,131.13 122.13,129.36 z"
         id="path3451" />
      <path
         style="fill:#fcfcfc"
         d="M 310,135.26 C 314.14,134.54 318.75,135.08 321.91,138.09 C 323.31,139.07 323.09,140.87 323.09,142.35 C 320.1,139.75 316.21,139.85 312.52,139.33 C 310.46,139.13 310.42,136.79 310,135.26 z"
         id="path3453" />
      <path
         style="fill:#fcfcfc"
         d="M 121.16,137.96 C 126.13,138.24 131.05,137.27 136.02,137.25 C 138.41,137.17 140.63,138.21 142.33,139.85 C 138.18,139.73 134.05,140.03 129.92,140.42 C 126.84,140.66 123.3,140.54 121.16,137.96 z"
         id="path3455" />
      <path
         style="fill:#0d0d0d"
         d="M 339.8,137.77 C 346.86,136.92 353.18,141.82 360.3,140.27 C 359.12,147.32 348.95,148.9 344.09,144.62 C 347.33,144.12 351.67,145.6 353.71,142.27 C 348.83,141.89 343.52,141.36 339.8,137.77 z"
         id="path3457" />
      <path
         style="fill:#0d0d0d"
         d="M 68.88,142.71 C 75.94,143.84 82.98,142.27 89.94,141.19 C 94.05,140.45 98.55,141.39 101.47,144.52 C 88.91,142.87 75.8,143.08 63.87,147.77 C 53.89,151.47 44.81,158.95 41.09,169.14 C 37.69,178.12 38.7,188.14 41.61,197.11 C 42.29,198.99 42.76,201.2 44.5,202.42 C 50.48,206.94 58.67,206.97 64.63,211.46 C 66.43,212.65 65.95,214.83 65.88,216.67 C 63.15,214.91 60.58,212.85 57.54,211.65 C 51.8,209.15 45.18,207.95 40.6,203.37 C 36.19,193.66 34.82,182.37 37.36,171.95 C 40.57,158.43 51.25,147.31 64.14,142.49 C 65.68,141.92 67.31,142.63 68.88,142.71 z"
         id="path3459" />
      <path
         style="fill:#0d0d0d"
         d="M 378.49,143.71 C 383.81,142 389.5,142.6 395.01,142.46 C 405.32,142.38 416.31,144.77 424.09,151.95 C 431.1,158.6 433.82,168.46 434.38,177.84 C 434.88,183.19 434.14,188.53 433.99,193.87 C 433.41,193.22 432.83,192.57 432.25,191.93 C 433.08,183.62 432.86,175.22 432.01,166.93 C 428.62,158.67 422.38,151.13 413.88,147.86 C 402.62,143.35 390.27,145.02 378.49,143.71 z"
         id="path3461" />
      <path
         style="fill:#0d0d0d"
         d="M 339.22,149.2 C 342.29,147.59 345.67,149.99 347.09,152.73 C 344.03,152.84 341.33,151.28 339.22,149.2 z"
         id="path3463" />
      <path
         style="fill:#0d0d0d"
         d="M 366.89,151.77 C 379.84,149.15 394.06,151.3 404.95,159.05 C 414.83,165.93 421.71,177.61 421.07,189.85 C 420.88,200.29 414.96,209.79 407.14,216.38 C 404.05,209.61 408.14,202.9 410.4,196.63 C 413.31,189.5 411.7,181.37 408.23,174.75 C 404.81,168.06 398.27,163.31 391.09,161.36 C 384.7,159.38 377.93,159.64 371.34,160.04 C 364.64,166.53 355.69,169.98 346.83,172.37 C 335.2,175.3 322.98,176.2 311.11,174.4 C 303.12,173.02 294.67,170.15 289.56,163.48 C 286.79,160.03 285.9,155.55 285.74,151.23 C 296.11,152.75 302.15,162.8 311.88,165.87 C 320.73,168.67 330.54,167.71 339.08,164.26 C 348.51,160.46 356.74,153.75 366.89,151.77 z"
         id="path3465" />
      <path
         style="fill:#0d0d0d"
         d="M 51.79,162.63 C 56.9,158.24 63.38,156.02 69.63,153.8 C 66.42,160.59 56.51,159.68 53.86,166.93 C 51.73,173.44 54.33,180.58 51.97,187.12 C 51.37,186.25 50.78,185.39 50.17,184.53 C 50.28,177.2 51.43,169.94 51.79,162.63 z"
         id="path3467" />
      <path
         style="fill:#0d0d0d"
         d="M 69.42,164.39 C 77.74,160.41 87.37,162.1 95.87,164.61 C 103.63,167.05 111.21,170.6 117.22,176.19 C 120.62,174.35 123.49,171.58 127.1,170.11 C 129.21,169.47 131.17,170.43 132.87,171.58 C 132.65,175.75 131.14,180.24 127.13,182.19 C 119.14,186.04 109.98,184.42 101.42,184.82 C 101.12,179.71 98.59,174.07 93.21,172.71 C 82.25,169.97 71.6,175.4 60.75,176.14 C 61.92,171.27 64.69,166.52 69.42,164.39 z"
         id="path3469" />
      <path
         style="fill:#0d0d0d"
         d="M 372.4,168.41 C 373.68,166.68 375.98,166.84 377.88,166.57 C 378.08,171.34 378.68,176.4 381.67,180.32 C 387.77,188.69 399.3,190.53 405.44,198.87 C 400.46,203.44 393.74,199.88 387.98,199.52 C 384.9,198.97 384.03,202.68 382.76,204.72 C 380.82,207.89 380.63,211.7 382.07,215.1 C 383.31,217.2 380.45,218.1 379.46,219.45 C 368.84,230.19 361.7,243.69 352.77,255.75 C 345.75,265.53 337.59,274.57 328.04,281.93 C 311.68,294.56 293.5,304.9 274.14,312.16 C 255.91,319.1 236.33,321.13 217.02,322.68 C 194.75,324.18 172.38,324.29 150.11,322.7 C 134.57,321.42 118.92,319.65 103.99,314.98 C 97.92,312.97 91.58,310.6 87.26,305.66 C 80.84,298.45 77.38,289.19 74.91,280 C 69.96,260.14 69.32,239.29 72.13,219.07 C 73.43,209.51 78.12,200.96 82.61,192.59 C 84.78,189.1 83.63,184.78 84.97,181.07 C 85.76,178.92 88.41,180.13 90.08,179.97 C 94.08,188.5 91.68,198.31 94.59,207.08 C 110.16,222.58 131.99,230.12 153.43,232.83 C 184.43,236.47 215.72,231.68 245.84,224.37 C 289.09,213.54 330.68,196.97 371,178.12 C 371.09,174.88 370.44,171.24 372.4,168.41 z"
         id="path3471" />
      <path
         style="fill:#0d0d0d"
         d="M 229.57,191.94 C 229.86,186.3 236,183.89 240.9,184.51 C 247.08,185.23 253.81,186.85 258.3,191.45 C 259.74,195.03 259.24,199.12 259.16,202.91 C 258.57,208.43 256.71,215.07 251.13,217.45 C 248.49,218.74 245.65,217.42 243.06,216.68 C 243.06,214.95 242.69,213.11 243.5,211.5 C 245.02,208.21 249.13,206.94 250.3,203.43 C 251.22,200.98 250.38,198.41 249.93,195.97 C 243.37,193.44 235.98,194.96 229.57,191.94 z"
         id="path3473" />
      <path
         style="fill:#0d0d0d"
         d="M 261.55,191.61 C 260.82,189.5 260.2,186.36 262.85,185.39 C 263.55,185.59 264.93,185.97 265.62,186.17 C 264.69,186.87 263.76,187.56 262.83,188.25 C 263.01,190.79 264.89,192.89 267.37,193.42 C 276.45,195.67 285.9,192.67 295.02,194.33 C 297.02,194.51 297.66,196.34 297.34,198.13 C 288.93,193.45 279.11,197.18 270.09,196.32 C 266.83,196.11 262.71,195.11 261.55,191.61 z"
         id="path3475" />
      <path
         style="fill:#0d0d0d"
         d="M 50.38,187.14 C 50.87,187.45 51.87,188.08 52.37,188.4 C 55.02,193.81 60.82,196.38 64.76,200.67 C 61.28,200.25 57.55,199.61 54.9,197.11 C 52.01,194.62 51.03,190.73 50.38,187.14 z"
         id="path3477" />
      <path
         style="fill:#fcfcfc"
         d="M 333.04,207.61 C 347.72,202.73 359.48,190.07 375.55,189.4 C 375.8,198.1 371.76,206.58 365.2,212.21 C 356.06,220.2 343.99,223.74 332.18,225.38 C 335.07,219.77 332.13,213.53 333.04,207.61 z"
         id="path3479" />
      <path
         style="fill:#0d0d0d"
         d="M 432.04,192.99 C 432.6,193.74 433.16,194.5 433.72,195.25 C 432.66,202.37 431.37,209.46 429.6,216.44 C 423.54,220.04 417.89,224.79 410.85,226.3 C 409.05,226.86 407.26,226.21 405.54,225.71 C 412.3,224.61 419.18,221.99 423.65,216.57 C 429.09,210 431.45,201.37 432.04,192.99 z"
         id="path3481" />
      <path
         style="fill:#0d0d0d"
         d="M 212.82,201.73 C 221.25,199.44 230.25,200.44 238.49,203.03 C 238.77,206.79 238.48,210.66 236.46,213.94 C 227.39,205.8 214.87,214.66 204.72,209.86 C 205.24,205.65 208.9,202.71 212.82,201.73 z"
         id="path3483" />
      <path
         style="fill:#fcfcfc"
         d="M 83.28,219.04 C 84.41,216.49 85.82,214.06 87.75,212.04 C 87.28,215.07 86.41,218.08 84.49,220.54 C 84.19,220.16 83.58,219.41 83.28,219.04 z"
         id="path3485" />
      <path
         style="fill:#fcfcfc"
         d="M 267.98,227.88 C 286.73,223.07 304.96,216.35 323.9,212.22 C 323.78,220.37 319.85,228.47 312.82,232.82 C 300.48,240.65 285.31,241.48 272.24,247.68 C 270.59,241.13 269.75,234.4 267.98,227.88 z"
         id="path3487" />
      <path
         style="fill:#fcfcfc"
         d="M 88.68,241.81 C 88.8,234.25 92.7,227.35 96.87,221.27 C 99.4,230.84 96.98,240.86 94.45,250.17 C 91.16,248.69 88.46,245.62 88.68,241.81 z"
         id="path3489" />
      <path
         style="fill:#fcfcfc"
         d="M 342.03,235.17 C 347.38,232.12 353.41,230.33 359.54,229.89 C 349.19,238.33 346.71,254.59 333.01,259.16 C 331.44,255.69 330.12,251.87 331,248.02 C 332.26,242.21 337.06,237.98 342.03,235.17 z"
         id="path3491" />
      <path
         style="fill:#fcfcfc"
         d="M 108.12,254.4 C 107.13,246.58 102.72,236.37 109.87,230.22 C 113.63,234.01 118.67,235.89 123.75,237.13 C 124.31,241.97 120.8,245.77 119.4,250.12 C 118.59,252.56 119.81,254.96 120.76,257.15 C 116.68,255.71 112.61,253.37 108.12,254.4 z"
         id="path3493" />
      <path
         style="fill:#fcfcfc"
         d="M 217.92,240.46 C 231.4,237.43 244.9,234.45 258.58,232.4 C 260.52,238.95 261.18,245.79 263.01,252.36 C 252.51,253.49 242.56,257.33 232.13,258.81 C 226.06,259.73 219.89,259.64 213.79,259.16 C 213.85,253.34 213.68,247.53 213.84,241.72 C 214.98,240.85 216.58,240.88 217.92,240.46 z"
         id="path3495" />
      <path
         style="fill:#fcfcfc"
         d="M 128.97,254.96 C 133.34,250.73 130.75,243.76 134.59,239.24 C 144.12,244.53 155.56,241.43 165.57,245.11 C 162.06,249.07 164.87,254.51 164.31,259.2 C 152.46,259.17 140.14,259.54 128.97,254.96 z"
         id="path3497" />
      <path
         style="fill:#fcfcfc"
         d="M 175.95,243.83 C 185.7,245.17 195.03,241.2 204.72,241.18 C 204.77,247.18 204.73,253.19 204.75,259.19 C 194.22,259.21 183.7,259.24 173.17,259.18 C 171.79,253.68 176.32,249.25 175.95,243.83 z"
         id="path3499" />
      <path
         style="fill:#fcfcfc"
         d="M 276.8,263.98 C 292.46,260.18 307.2,253.47 321.46,246.11 C 320.16,254.05 321.99,262.66 328.12,268.21 C 313.69,276.55 301.24,288.07 285.97,294.99 C 285.78,285.91 277.61,279.73 276.71,270.88 C 276.36,268.58 276.62,266.27 276.8,263.98 z"
         id="path3501" />
      <path
         style="fill:#fcfcfc"
         d="M 222.78,279.66 C 238.28,277.7 252.91,271.92 267.38,266.3 C 266.99,271.5 266.88,276.97 269.28,281.75 C 272.06,287.52 275.93,292.92 276.74,299.45 C 263.15,302.79 250.1,308.53 236.06,309.82 C 231.77,310.33 227.45,309.72 223.27,308.78 C 224.99,299.11 221.26,289.39 222.78,279.66 z"
         id="path3503" />
      <path
         style="fill:#fcfcfc"
         d="M 85.55,281.33 C 84.63,279.51 84.76,277.45 85.09,275.51 C 87.25,280.58 90.99,284.78 93.14,289.85 C 94.28,292.24 93.69,294.92 92.67,297.23 C 91.46,291.44 87.94,286.62 85.55,281.33 z"
         id="path3505" />
      <path
         style="fill:#fcfcfc"
         d="M 103.08,281.62 C 110.15,288.11 113.86,297.26 116.77,306.2 C 111.27,304.78 105.48,304.14 100.34,301.62 C 98.8,300.97 98.32,299.29 97.72,297.91 C 98.56,298.65 99.38,299.4 100.2,300.17 C 101.96,299.68 104.02,299.49 105.27,297.97 C 107.29,292.19 99.37,287.14 103.08,281.62 z"
         id="path3507" />
      <path
         style="fill:#fcfcfc"
         d="M 177.91,286.47 C 190.03,287.53 202.2,285.5 213.78,281.96 C 214.39,291.62 211.52,301.88 215.58,311.05 C 204.86,314.64 193.42,312.68 182.36,313 C 181.26,304.09 179.11,295.36 177.91,286.47 z"
         id="path3509" />
      <path
         style="fill:#fcfcfc"
         d="M 119.25,286.18 C 124.71,285.8 129.24,289.99 134.78,289.12 C 134.5,297.07 140.22,303.28 141.64,310.82 C 136.47,310.07 130.98,309.84 126.48,306.88 C 127.07,305.02 128.11,303 127.16,301.06 C 125.33,295.69 120.96,291.62 119.25,286.18 z"
         id="path3511" />
      <path
         style="fill:#fcfcfc"
         d="M 144.12,288.6 C 150.84,287.03 158.65,286.12 164.53,290.51 C 171.24,295.94 172.11,305.22 173.11,313.19 C 166.4,313.47 159.6,313.1 153.19,310.92 C 151.39,303.01 146.54,296.29 144.12,288.6 z"
         id="path3513" />
      <path
         style="fill:#0d0d0d"
         d="M 305.72,310.82 C 316.64,305.82 327.88,300.72 339.98,299.6 C 320.45,306.59 302.38,316.88 283.61,325.58 C 259.35,336.89 233.15,346.37 206,345.2 C 195.99,344.02 186.01,346.09 175.98,345.99 C 156.71,345.76 137.21,348.15 118.12,344.39 C 110.22,342.68 101.98,339.65 96.83,333.07 C 94.17,329.91 92.78,325.94 91.99,321.94 C 98.93,333.6 112.17,339.18 124.86,342.06 C 140.63,345.42 156.92,346.53 173,345.12 C 194.56,344.2 216.4,344.39 237.51,339.3 C 261.61,333.44 283.49,321.42 305.72,310.82 z"
         id="path3515" />
      <path
         style="fill:#0d0d0d"
         d="M 328.06,313.21 C 339.02,307.81 349.74,300.64 362.25,299.7 C 348.66,308.85 333.85,316.07 318.96,322.86 C 260.34,348.87 196.05,361.19 132.03,361.26 C 119.29,361.33 106.3,360.8 94.05,356.96 C 84.33,353.92 75.25,347.81 70.12,338.85 C 69.97,335.07 68.46,330.88 69.95,327.3 C 70.45,327.01 71.45,326.44 71.95,326.15 C 72.05,330.75 71.98,335.36 72,339.96 C 77.52,345.53 84.49,349.46 91.83,352.1 C 103.1,356.25 115.1,357.91 127.02,358.78 C 145.75,359.91 164.53,358.75 183.17,356.78 C 233.63,351.48 282.81,335.99 328.06,313.21 z"
         id="path3517" />
      <path
         style="fill:#0d0d0d"
         d="M 144.64,331.46 C 158.76,331.58 172.89,331.24 186.99,331.72 C 196.31,331.74 206.35,329.08 215.15,333.22 C 199.78,332.55 184.43,333.77 169.06,333.8 C 160.91,333.58 152.53,333.79 144.64,331.46 z"
         id="path3519" />
    </g>
    <image
       y="214.74466"
       x="293.00354"
       id="image3651"
       height="426.82709"
       width="357.46768"
       sodipodi:absref="/home/tamentis/projects/tictactroll/gfx/grunge-yellow-notebook.jpg"
       xlink:href="grunge-yellow-notebook.jpg"
       transform="matrix(0.9901647,-0.1399069,0.1399069,0.9901647,0,0)" />
    <path
       style="fill:#ffffff;fill-opacity:1;fill-rule:nonzero;stroke:#000000;stroke-width:6;stroke-linecap:butt;stroke-linejoin:round;stroke-miterlimit:4;stroke-dashoffset:0;stroke-opacity:1"
       d="M 702,-229.90625 C 793.632,-229.90625 868,-197.65025 868,-157.90625 C 868,-118.16225 793.632,-85.90625 702,-85.90625 C 699.65051,-85.90625 697.32582,-85.92676 695,-85.96875 C 714.09581,-54.30619 745.67705,-32.02791 774,-7.40625 C 709.83404,-31.42818 653.61976,-60.612 606.71875,-99 C 563.98004,-112.03022 536,-133.54249 536,-157.90625 C 536,-197.65025 610.368,-229.90625 702,-229.90625 z"
       id="path3521"
       inkscape:export-filename="/home/tamentis/projects/tictactroll/gfx/bubble.png"
       inkscape:export-xdpi="90.230003"
       inkscape:export-ydpi="90.230003" />
    <path
       style="opacity:1;fill:#2c3139;fill-opacity:1;fill-rule:nonzero;stroke:none;stroke-width:6;stroke-linecap:round;stroke-linejoin:round;stroke-miterlimit:4;stroke-dasharray:none;stroke-dashoffset:0;stroke-opacity:1"
       id="path3659"
       d="M 478.06731,232.86159 C 478.15617,233.88723 478.21684,234.9157 478.3339,235.9385 C 478.81722,240.16152 479.4722,243.86689 480.09215,248.14879 C 481.74091,259.53632 483.27612,270.938 484.95336,282.32185 C 489.23381,316.83951 490.4524,351.64129 491.41473,386.38071 C 492.28852,409.37582 492.01072,432.39709 492.7636,455.3937 C 493.23094,462.126 492.89729,459.01802 493.6688,464.72739 L 484.1556,464.83286 C 483.64741,459.04843 483.84823,462.1882 483.63536,455.40865 C 483.63418,432.40653 484.04502,409.40251 483.53443,386.40099 C 482.70902,351.68055 481.63409,316.86125 476.57062,282.44938 C 473.9403,265.93635 471.30474,249.4272 468.17193,233.00201 L 478.06731,232.86159 z" />
    <path
       style="opacity:1;fill:#2c3139;fill-opacity:1;fill-rule:nonzero;stroke:none;stroke-width:6;stroke-linecap:round;stroke-linejoin:round;stroke-miterlimit:4;stroke-dasharray:none;stroke-dashoffset:0;stroke-opacity:1"
       id="path3661"
       d="M 567.94138,240.05142 C 568.20855,242.56558 568.75744,247.77259 568.98309,249.60087 C 569.32842,252.39871 569.79723,255.18123 570.10043,257.98395 C 571.60458,271.88817 572.27978,285.84181 572.92506,299.80482 C 573.94767,331.68099 574.86993,363.59136 574.46453,395.48838 C 574.38784,401.52302 574.20096,407.55575 574.06917,413.58943 C 573.28499,433.23189 571.99212,452.84829 570.75116,472.46562 L 561.60593,472.38968 C 563.62517,452.82327 565.4048,433.22427 566.28652,413.56865 C 566.47684,407.54072 566.75023,401.51484 566.85748,395.48486 C 567.42454,363.60306 566.28827,331.69589 564.93324,299.84971 C 563.60618,279.81541 562.15821,259.75123 558.05862,240.05142 L 567.94138,240.05142 z" />
    <path
       style="opacity:1;fill:#2c3139;fill-opacity:1;fill-rule:nonzero;stroke:none;stroke-width:6;stroke-linecap:round;stroke-linejoin:round;stroke-miterlimit:4;stroke-dasharray:none;stroke-dashoffset:0;stroke-opacity:1"
       id="path3673"
       d="M 421.15657,287.68509 C 421.87108,287.94357 422.56941,288.25214 423.3001,288.46054 C 425.49101,289.08541 432.27808,290.61813 434.00368,290.98818 C 445.612,293.47754 457.3071,295.48393 468.99612,297.54953 C 506.92549,304.56582 545.52833,306.40199 583.99511,307.80353 C 613.0528,308.5169 642.11394,308.73233 671.17031,309.52482 L 664.00777,314.68904 C 635.29949,313.37789 606.56951,313.13605 577.8475,312.23369 C 539.21361,310.64076 500.43341,308.90732 462.27103,302.2663 C 448.78244,300.10722 448.60454,300.12807 436.05907,297.9512 C 429.123,296.74766 422.10988,295.58147 415.26053,293.91531 C 414.4936,293.72874 413.75121,293.45282 412.99654,293.22158 L 421.15657,287.68509 z" />
    <path
       style="opacity:1;fill:#2c3139;fill-opacity:1;fill-rule:nonzero;stroke:none;stroke-width:6;stroke-linecap:round;stroke-linejoin:round;stroke-miterlimit:4;stroke-dasharray:none;stroke-dashoffset:0;stroke-opacity:1"
       id="path3675"
       d="M 430.18198,380.19862 C 443.84135,380.43603 457.50315,380.49381 471.16394,380.6136 C 507.93204,380.8549 544.70172,380.90409 581.47056,380.854 C 603.66825,380.86654 625.86591,380.78371 648.06313,380.6452 L 641.32082,385.54377 C 619.31521,385.40405 597.30914,385.32232 575.30305,385.33496 C 538.31362,385.28438 501.32337,385.33629 464.33466,385.57536 C 450.29309,385.69559 436.25061,385.75586 422.21037,385.99034 L 430.18198,380.19862 z" />
    <rect
       style="opacity:1;fill:#0c1729;fill-opacity:1;fill-rule:nonzero;stroke:#8a6b15;stroke-width:4.00000095;stroke-linecap:butt;stroke-linejoin:round;stroke-miterlimit:4;stroke-dasharray:none;stroke-dashoffset:0;stroke-opacity:1"
       id="rect2439"
       width="254.28571"
       height="43.500004"
       x="40.85714"
       y="456.16592" />
    <rect
       y="451.66589"
       x="36.85714"
       height="43.999989"
       width="254.28571"
       id="rect2437"
       style="opacity:1;fill:none;fill-opacity:1;fill-rule:nonzero;stroke:#d2a320;stroke-width:3.99999976000000013;stroke-linecap:butt;stroke-linejoin:round;stroke-miterlimit:4;stroke-dasharray:none;stroke-dashoffset:0;stroke-opacity:1" />
    <rect
       style="opacity:1;fill:url(#linearGradient3231);fill-opacity:1;fill-rule:nonzero;stroke:none;stroke-width:3.99999976;stroke-linecap:butt;stroke-linejoin:round;stroke-miterlimit:4;stroke-dasharray:none;stroke-dashoffset:0;stroke-opacity:1"
       id="rect3229"
       width="254.28571"
       height="43.999989"
       x="36.85714"
       y="451.66589" />
    <rect
       y="456.16592"
       x="757.85718"
       height="43.500004"
       width="254.28571"
       id="rect3233"
       style="opacity:1;fill:#0c1729;fill-opacity:1;fill-rule:nonzero;stroke:#8a6b15;stroke-width:4.00000095;stroke-linecap:butt;stroke-linejoin:round;stroke-miterlimit:4;stroke-dasharray:none;stroke-dashoffset:0;stroke-opacity:1" />
    <rect
       style="opacity:1;fill:none;fill-opacity:1;fill-rule:nonzero;stroke:#d2a320;stroke-width:3.99999976;stroke-linecap:butt;stroke-linejoin:round;stroke-miterlimit:4;stroke-dasharray:none;stroke-dashoffset:0;stroke-opacity:1"
       id="rect3235"
       width="254.28571"
       height="43.999989"
       x="753.85718"
       y="451.66589" />
    <rect
       y="451.66589"
       x="753.85718"
       height="43.999989"
       width="254.28571"
       id="rect3237"
       style="opacity:1;fill:url(#linearGradient3239);fill-opacity:1;fill-rule:nonzero;stroke:none;stroke-width:3.99999976;stroke-linecap:butt;stroke-linejoin:round;stroke-miterlimit:4;stroke-dasharray:none;stroke-dashoffset:0;stroke-opacity:1" />
  </g>
</svg>
